<?xml version="1.0" encoding="utf-8"?>
<!-- Generator: Adobe Adobe Illustrator 24.2.0, SVG Export Plug-In . SVG Version: 6.00 Build 0)  -->
<svg version="1.1" id="Ebene_1" xmlns="http://www.w3.org/2000/svg" xmlns:xlink="http://www.w3.org/1999/xlink" x="0px" y="0px"
	 width="400px" height="400px" viewBox="0 0 400 400" style="enable-background:new 0 0 400 400;" xml:space="preserve">
<style type="text/css">
	.st0{opacity:0.9882;}
	.st1{fill:#A8A7A7;}
	.st2{fill:#333333;}
	.st3{fill:#6F6F6E;}
	.st4{fill:#9D9C9C;}
</style>
<g class="st0">
	<path class="st1" d="M262.94,182.72h-17.11h-1.65h-1.5h-17.26l-1.84,5.51c0,0,2.61-4.9,7.18-4.9c3.41,0,9.2,0,11.92-0.01v36.42
		c0,0.6-0.17,1.19-0.55,1.67c-0.43,0.55-1.18,1.08-2.48,1.08h3.03h1.43h0.3h1.43h3.03c-1.32,0-2.07-0.55-2.5-1.11
		c-0.36-0.48-0.53-1.06-0.53-1.65v-36.42c2.78,0,8.42,0.01,11.76,0.01c4.57,0,7.18,4.9,7.18,4.9L262.94,182.72z"/>
	<path class="st1" d="M348.76,219.74v-34.27c0-0.58,0.16-1.16,0.53-1.64c0.43-0.56,1.18-1.11,2.5-1.11h-3.03h-1.43h-0.3h-1.43h-3.03
		c1.3,0,2.05,0.53,2.48,1.08c0.38,0.48,0.55,1.08,0.55,1.67v34.27c0,0.6-0.17,1.19-0.55,1.67c-0.43,0.55-1.18,1.08-2.48,1.08h3.03
		h1.43h0.3h1.43h3.03c-1.32,0-2.08-0.55-2.5-1.11C348.92,220.9,348.76,220.32,348.76,219.74z"/>
	<path class="st1" d="M292.47,182.72c0.14,0,0.27,0,0.39,0.01c2.08,0.14,3.64,1.84,3.64,3.77v24.48c0,0-0.01,10.77-12.52,10.77
		c-12.06,0-12.07-10.77-12.07-10.77v-25.51c0-0.58,0.16-1.17,0.53-1.65c0.43-0.56,1.18-1.11,2.5-1.11h-3.03h-1.43h-0.3h-1.43h-3.03
		c1.3,0,2.05,0.53,2.48,1.08c0.38,0.48,0.55,1.08,0.55,1.67v25.52c0,0,0.07,11.5,15.22,11.5c13.21,0,13.17-11.5,13.17-11.5V186.5
		c0-1.94,1.56-3.63,3.64-3.77c0.13-0.01,0.26-0.01,0.39-0.01H292.47z"/>
	<path class="st1" d="M320.87,182.72h-11.93h-0.26h-1.46h-1.43h-3.03c1.3,0,2.05,0.53,2.48,1.08c0.38,0.48,0.55,1.08,0.55,1.67
		v34.27c0,0.6-0.17,1.19-0.55,1.67c-0.43,0.55-1.18,1.08-2.48,1.08h3.03h1.43h1.46h0.26h11.93c0,0,18.94,0.01,19.68-19.88
		C339.8,182.71,320.87,182.72,320.87,182.72z M320.87,221.88h-11.93v-38.56h11.93c0,0,15.89-0.02,16.53,19.28
		C336.76,221.9,320.87,221.88,320.87,221.88z"/>
	<path class="st1" d="M370.92,183.42c-11.42,2.89-18.15,13.83-15.03,24.42c3.12,10.59,14.9,16.84,26.32,13.94
		c11.42-2.89,18.15-13.83,15.03-24.42C394.12,186.77,382.34,180.53,370.92,183.42z M382.04,221.2c-11.07,2.81-20.1-3.85-23.12-14.13
		s1.1-20.26,12.17-23.07c11.07-2.81,20.08,3.86,23.11,14.13S393.11,218.39,382.04,221.2z"/>
	<g>
		<rect x="5.03" y="182.72" class="st3" width="6.65" height="39.77"/>
		<path class="st3" d="M2,182.72h4.45v2.26H5.03C5.03,184.98,4.67,182.72,2,182.72z"/>
		<path class="st3" d="M2,222.48h4.45v-2.26H5.03C5.03,220.23,4.67,222.48,2,222.48z"/>
		<path class="st3" d="M14.7,222.48h-4.45v-2.26h1.42C11.68,220.23,12.03,222.48,14.7,222.48z"/>
		<path class="st3" d="M11.68,182.72h18.76l1.84,5.51c0,0-2.61-4.9-7.18-4.9s-13.83,0-13.83,0v-0.61H11.68z"/>
		<path class="st3" d="M26.7,197.86c0,2.97-2.73,3.75-2.73,3.75H11.68h-0.42v0.61l9.97,0l2.73,0c0,0,2.73,0.77,2.73,3.75V197.86z"/>
		<path class="st3" d="M178.77,221.88c-3.99,0-11.57,0-13.42,0v-19.66l9.56,0l2.73,0c0,0,2.73,0.77,2.73,3.75v-8.1
			c0,2.97-2.73,3.75-2.73,3.75h-12.29v-18.29c1.85,0,9.42,0,13.42,0c4.57,0,7.18,4.9,7.18,4.9l-1.84-5.51h-18.76h-0.42h-4.81h-1.42
			h-3.03c1.34,0,2.09,0.56,2.52,1.13c0.35,0.47,0.51,1.05,0.51,1.63v34.25c0,0.58-0.16,1.15-0.51,1.63
			c-0.42,0.56-1.18,1.13-2.52,1.13h3.03h1.42h4.81h0.42h18.76l1.84-5.51C185.96,216.98,183.34,221.88,178.77,221.88z"/>
		<path class="st3" d="M150.02,219.73v-34.25c0-0.58,0.16-1.15,0.51-1.63c0.42-0.56,1.18-1.13,2.52-1.13h-3.03h-1.42h-5.22v9.34
			l-10.39,25.29l-17.16-34.63h-6.65l4.04,8.15v28.87c0,0.16-0.03,0.31-0.1,0.45c-0.3,0.63-1.34,2.3-3.94,2.3h8.73
			c-2.63,0-3.66-1.71-3.95-2.32c-0.06-0.13-0.09-0.26-0.09-0.4v-27.58l15.01,30.3l5.2-2.93l-0.71-1.43l10-24.36v25.97
			c0,0.58-0.16,1.16-0.51,1.63c-0.42,0.56-1.18,1.12-2.51,1.12h3.03h1.42h3.8h1.42h3.03c-1.34,0-2.09-0.56-2.52-1.13
			C150.18,220.88,150.02,220.3,150.02,219.73z"/>
		<path class="st3" d="M106.25,221.94c-0.4-0.28-0.69-0.67-0.89-1.09l-0.29-0.63v0l-17.47-37.51l0,0h-0.65l-15.48,37.21
			c0,0-0.83,2.53-4.04,2.53h8.73c-1.29,0-2.28-0.2-3.01-0.45c-0.91-0.31-1.37-1.25-1.03-2.09l3.73-8.97h18.2l4.25,9.04
			c0.08,0.16,0.09,0.35,0.04,0.52c-0.2,0.6-0.87,1.97-2.95,1.97h6.11h1.32h0.91h2.4h2.06C107.33,222.48,106.71,222.25,106.25,221.94
			z M76.11,210.35l8.29-19.93l9.37,19.93H76.11z"/>
		<path class="st3" d="M62.6,220.23c-2.19-2.16-7.95-9.51-10.64-12.98c5.59-1.43,11.8-4.6,11.8-11.68c0-12.85-20.5-12.85-20.5-12.85
			h-0.42h-4.81h-1.42h-3.03c2.67,0,3.03,2.26,3.03,2.26v35.25c0,0-0.36,2.26-3.03,2.26h3.03h1.42h3.8h1.42h3.03
			c-2.67,0-3.03-2.25-3.03-2.26v-11.82c0,0,2.05,0,4.85-0.41c1.98,2.15,8.8,9.7,11.59,12.46c1.49,1.47,5.96,3.76,8.7-0.23
			C68.4,220.23,65.5,223.09,62.6,220.23z M43.26,183.33c1.86,0.05,9.46,0.41,12.66,3.32c2.19,1.99,3.31,5.48,3.23,8.91
			c0.08,3.43-1.04,6.92-3.23,8.91c-1.09,0.99-2.7,1.69-4.42,2.18c-0.61-0.78-0.97-1.26-0.97-1.26s-0.52-0.48-0.99-0.18
			c-0.48,0.29-1.95,1.21-1.95,1.21s-0.56,0.48,0,1.03c-1.93,0.26-3.59,0.33-4.33,0.35V183.33z"/>
		<path class="st3" d="M206.07,200.76c0,0-11.14,0-11.14-8.62s4.98-9.87,11.14-9.87c6.16,0,10.95,6.6,10.95,6.6l2.98-2.83
			c0,0-7.7-4.76-13.93-4.76c-6.23,0-17.24,0.19-17.24,10.96c0,10.77,17.24,10.77,17.24,10.77s11.14,0,11.14,8.62
			s-4.98,9.87-11.14,9.87c-6.16,0-10.95-6.6-10.95-6.6l-2.98,2.83c0,0,7.7,4.76,13.93,4.76c6.23,0,17.24-0.19,17.24-10.96
			C223.31,200.76,206.07,200.76,206.07,200.76z"/>
	</g>
	<g>
		<g>
			<polygon class="st4" points="214.68,279.56 40.88,279.56 40.88,228.03 41.56,228.03 41.56,278.94 214,278.94 214,228.03 
				214.68,228.03 			"/>
		</g>
		<g>
			<polygon class="st4" points="214.68,176.21 214,176.21 214,121.06 41.56,121.06 41.56,176.21 40.88,176.21 40.88,120.44 
				214.68,120.44 			"/>
		</g>
		<g>
			<polygon class="st4" points="162.97,176.21 162.3,176.21 162.3,95.12 9.93,95.12 9.93,176.21 9.26,176.21 9.26,94.5 162.97,94.5 
							"/>
		</g>
		<g>
			<polygon class="st4" points="162.97,305.5 9.26,305.5 9.26,228.03 9.93,228.03 9.93,304.88 162.3,304.88 162.3,228.03 
				162.97,228.03 			"/>
		</g>
	</g>
</g>
</svg>
